<svg width="24" height="24" viewBox="0 0 24 24" fill="none" xmlns="http://www.w3.org/2000/svg">
<g id="Group 6265">
<g id="Group 1500">
<path id="Stroke 3017" d="M8.70935 14.6667V20.0001H17.776V15.7334" stroke="#091C3F" stroke-width="1.2" stroke-linecap="round" stroke-linejoin="round"/>
<path id="Stroke 3019" fill-rule="evenodd" clip-rule="evenodd" d="M15.6427 13.5999C15.6427 12.4218 16.5979 11.4666 17.776 11.4666C18.9542 11.4666 19.9094 12.4218 19.9094 13.5999C19.9094 14.778 18.9542 15.7332 17.776 15.7332C16.5979 15.7332 15.6427 14.778 15.6427 13.5999V13.5999Z" stroke="#4157FF" stroke-width="1.2" stroke-linecap="round" stroke-linejoin="round"/>
<path id="Stroke 3162" d="M11.3757 4.53345H13.4184C13.7459 4.53345 13.996 4.82625 13.9448 5.14998L12.5848 13.7665C12.5027 14.2849 12.0557 14.6668 11.5309 14.6668H6.42054C5.89574 14.6668 5.4488 14.2849 5.36667 13.7665L4.00667 5.14998C3.95547 4.82625 4.2056 4.53345 4.53307 4.53345H6.57574" stroke="#091C3F" stroke-width="1.2" stroke-linecap="round" stroke-linejoin="round"/>
<path id="Stroke 3163" d="M6.57605 4V5.6" stroke="#4157FF" stroke-width="1.2" stroke-linecap="round" stroke-linejoin="round"/>
<path id="Stroke 3164" d="M11.376 4V5.6" stroke="#4157FF" stroke-width="1.2" stroke-linecap="round" stroke-linejoin="round"/>
</g>
</g>
</svg>
