<svg width="48" height="48" viewBox="0 0 48 48" fill="none" xmlns="http://www.w3.org/2000/svg">
<circle cx="24" cy="24" r="24" fill="url(#paint0_linear_1231_3)"/>
<path fill-rule="evenodd" clip-rule="evenodd" d="M22.1317 21.9183C22.1317 18.6497 23.71 16 23.71 16C23.71 16 25.2883 18.6497 25.2883 21.9183C25.2883 25.1869 23.71 27.8366 23.71 27.8366C23.71 27.8366 22.1317 25.1869 22.1317 21.9183V21.9183Z" stroke="white" stroke-width="1.5" stroke-linecap="round" stroke-linejoin="round"/>
<path fill-rule="evenodd" clip-rule="evenodd" d="M27.3314 25.0447C28.8469 23.5293 30.9126 23.1373 30.9126 23.1373C30.9126 23.1373 30.5212 25.203 29.0052 26.7185C27.4897 28.2345 25.424 28.6259 25.424 28.6259C25.424 28.6259 25.816 26.5602 27.3314 25.0447V25.0447Z" stroke="white" stroke-width="1.5" stroke-linecap="round" stroke-linejoin="round"/>
<path fill-rule="evenodd" clip-rule="evenodd" d="M28.4222 29.7142C30.0782 29.7142 31.4199 30.8571 31.4199 30.8571C31.4199 30.8571 30.0782 32 28.4222 32C26.7662 32 25.4244 30.8571 25.4244 30.8571C25.4244 30.8571 26.7662 29.7142 28.4222 29.7142V29.7142Z" stroke="white" stroke-width="1.5" stroke-linecap="round" stroke-linejoin="round"/>
<path fill-rule="evenodd" clip-rule="evenodd" d="M20.0885 24.9902C18.5731 23.4748 16.5074 23.0828 16.5074 23.0828C16.5074 23.0828 16.8988 25.1485 18.4148 26.6639C19.9303 28.18 21.996 28.5714 21.996 28.5714C21.996 28.5714 21.604 26.5057 20.0885 24.9902V24.9902Z" stroke="white" stroke-width="1.5" stroke-linecap="round" stroke-linejoin="round"/>
<path fill-rule="evenodd" clip-rule="evenodd" d="M18.9977 29.7142C17.3417 29.7142 16 30.8571 16 30.8571C16 30.8571 17.3417 32 18.9977 32C20.6537 32 21.9954 30.8571 21.9954 30.8571C21.9954 30.8571 20.6537 29.7142 18.9977 29.7142V29.7142Z" stroke="white" stroke-width="1.5" stroke-linecap="round" stroke-linejoin="round"/>
<defs>
<linearGradient id="paint0_linear_1231_3" x1="24" y1="0" x2="24" y2="48" gradientUnits="userSpaceOnUse">
<stop stop-color="#19E5A5"/>
<stop offset="1" stop-color="#15BD92"/>
</linearGradient>
</defs>
</svg>
